<svg width="40" height="40" viewBox="0 0 40 40" fill="none" xmlns="http://www.w3.org/2000/svg">
<circle cx="20" cy="20" r="20" fill="#F98012"/>
<path fill-rule="evenodd" clip-rule="evenodd" d="M13.4011 11.3327C14.0836 11.0199 14.8193 10.8572 15.5652 10.8572C16.3111 10.8572 17.0468 11.0199 17.7293 11.3327C18.4115 11.6453 19.0242 12.1004 19.5356 12.6663C19.8476 13.0114 20.3895 13.0114 20.7015 12.6663C21.7354 11.5222 23.161 10.8572 24.6719 10.8572C26.1828 10.8572 27.6084 11.5222 28.6424 12.6663C29.6732 13.8069 30.2371 15.3339 30.2371 16.9073C30.2371 18.4807 29.6732 20.0077 28.6424 21.1483L22.3707 28.0878C21.1654 29.4214 19.0717 29.4214 17.8665 28.0878L11.5948 21.1483C11.0836 20.5826 10.6827 19.9164 10.4108 19.1901C10.1389 18.4638 10 17.6884 10 16.9073C10 16.1262 10.1389 15.3508 10.4108 14.6245C10.6827 13.8981 11.0836 13.2319 11.5948 12.6663C12.1063 12.1004 12.719 11.6453 13.4011 11.3327Z" fill="white"/>
</svg>
