<svg width="40" height="40" viewBox="0 0 40 40" fill="none" xmlns="http://www.w3.org/2000/svg">
<circle cx="20" cy="20" r="20" fill="#FFC80D"/>
<path fill-rule="evenodd" clip-rule="evenodd" d="M13.4011 11.3326C14.0836 11.0198 14.8193 10.8571 15.5652 10.8571C16.3111 10.8571 17.0468 11.0198 17.7293 11.3326C18.4115 11.6453 19.0242 12.1003 19.5356 12.6662C19.8476 13.0114 20.3895 13.0114 20.7015 12.6662C21.7354 11.5222 23.161 10.8571 24.6719 10.8571C26.1828 10.8571 27.6084 11.5222 28.6424 12.6662C29.6732 13.8068 30.2371 15.3338 30.2371 16.9072C30.2371 18.4806 29.6732 20.0076 28.6424 21.1482L22.3707 28.0877C21.1654 29.4214 19.0717 29.4214 17.8665 28.0877L11.5948 21.1482C11.0836 20.5826 10.6827 19.9164 10.4108 19.1901C10.1389 18.4638 10 17.6883 10 16.9072C10 16.1261 10.1389 15.3507 10.4108 14.6244C10.6827 13.8981 11.0836 13.2319 11.5948 12.6662C12.1063 12.1003 12.719 11.6453 13.4011 11.3326Z" fill="#FFFBD0"/>
</svg>
