<svg width="468" height="235" viewBox="0 0 468 235" fill="none" xmlns="http://www.w3.org/2000/svg">
<g clip-path="url(#clip0_225_326)">
<path d="M154.122 234.606C140.001 234.606 125.9 234.353 111.821 233.848C91.7034 233.125 70.9007 232.378 51.5654 221.654C38.0396 214.153 26.0603 202.118 16.9231 186.85C10.8159 176.501 6.33784 165.274 3.64621 153.563C-1.37471 132.241 -1.2037 110.026 4.14489 88.7836C6.01924 81.5006 8.60316 74.419 11.8596 67.6403C25.96 38.4411 51.6782 18.8404 82.4199 13.8646C82.6738 13.8316 82.9305 13.8261 83.1856 13.8482C83.3238 13.8556 83.4616 13.8635 83.6021 13.8577L83.783 13.8002C84.2467 13.639 84.7229 13.5168 85.2069 13.4347C132.619 6.37649 182.74 20.6578 230.148 54.7337C266.804 81.0847 315.384 95.2743 378.664 98.1133L379.562 98.1604C397.178 99.1723 414.217 106.435 428.84 119.164C443.274 131.727 454.111 148.489 460.18 167.638C460.926 169.973 461.61 172.403 462.213 174.861C462.774 177.145 462.734 179.535 462.098 181.8C461.461 184.064 460.25 186.125 458.58 187.782V187.787L458.423 187.949C458.044 188.326 457.644 188.688 457.236 189.025L456.756 189.42C452.712 192.751 449.518 195.383 445.696 197.427C443.146 198.781 440.435 199.804 437.626 200.473C422.206 204.233 406.546 207.718 391.082 210.834C361.05 216.889 330.227 221.884 299.469 225.68C251.248 231.626 202.708 234.607 154.122 234.606ZM82.826 14.8824C82.7316 14.8815 82.6372 14.8879 82.5438 14.9015C52.0894 19.8309 26.6147 39.2391 12.6541 68.1493C9.42981 74.8608 6.87146 81.8723 5.01575 89.0831C-0.284096 110.137 -0.452988 132.155 4.52328 153.287C7.18856 164.886 11.6232 176.006 17.6714 186.256C26.7192 201.375 38.576 213.289 51.96 220.711C71.1217 231.339 91.8263 232.082 111.849 232.801C174.474 235.039 237.178 232.31 299.372 224.64C330.11 220.846 360.913 215.854 390.926 209.802C406.379 206.689 422.028 203.206 437.438 199.449C440.179 198.797 442.825 197.798 445.313 196.477C449.059 194.475 452.222 191.868 456.227 188.569L456.707 188.174C457.058 187.884 457.402 187.574 457.732 187.252L457.827 187.153C461.118 183.836 462.398 179.459 461.338 175.145V175.145C460.742 172.713 460.065 170.309 459.327 167.998C446.928 128.88 414.856 101.236 379.518 99.206L378.625 99.159C349.72 97.8619 324.425 94.269 301.3 88.1739C273.694 80.8982 249.593 69.9457 229.667 55.6215C182.439 21.6761 132.528 7.44796 85.3227 14.4727C84.8818 14.5488 84.4479 14.6613 84.0255 14.809L83.6995 14.9003C83.5143 14.9085 83.3288 14.9063 83.1438 14.8936C83.0349 14.888 82.9292 14.8824 82.826 14.8824H82.826Z" fill="#F0F0F0"/>
<path d="M146.184 76.4376C144.876 75.1834 143.539 68.1889 141.87 67.4788C143.118 70.2361 142.212 70.9661 142.205 73.9922C142.221 75.7105 142.02 77.4239 141.608 79.0921H113.335V57.0269C113.335 55.0443 113.725 53.0811 114.484 51.2494C115.243 49.4177 116.355 47.7533 117.757 46.3514C119.159 44.9495 120.823 43.8375 122.655 43.0788C124.486 42.3201 126.45 41.9296 128.432 41.9297C129.189 41.9445 129.941 42.0545 130.67 42.2573C133.1 42.9134 135.315 44.197 137.092 45.9794C138.87 47.7618 140.147 49.9802 140.797 52.4122C142.952 60.2904 146.38 73.4043 146.184 76.4376Z" fill="#2F2E41"/>
<path d="M114.994 103.582L115.008 86.3833L104.899 87.2867L108.467 98.1338L106.797 125.398C105.987 125.58 105.247 125.993 104.668 126.588C104.089 127.183 103.696 127.933 103.536 128.748C103.376 129.562 103.457 130.406 103.768 131.175C104.079 131.945 104.608 132.607 105.289 133.081C105.97 133.556 106.774 133.822 107.604 133.847C108.433 133.872 109.252 133.655 109.961 133.223C110.67 132.79 111.237 132.161 111.594 131.412C111.951 130.663 112.083 129.826 111.973 129.003L114.994 103.582Z" fill="#FFB6B6"/>
<path d="M134.89 226.483L138.974 226.482L140.917 210.729H134.889L134.89 226.483Z" fill="#FFB6B6"/>
<path d="M133.506 224.467L139.963 224.082V226.848L146.101 231.088C146.405 231.297 146.633 231.598 146.753 231.946C146.873 232.294 146.879 232.672 146.769 233.024C146.66 233.376 146.44 233.683 146.144 233.901C145.847 234.12 145.488 234.238 145.12 234.238H137.433L136.108 231.501L135.591 234.238H132.692L133.506 224.467Z" fill="#2F2E41"/>
<path d="M111.274 226.483L115.359 226.482L117.301 210.729H111.273L111.274 226.483Z" fill="#FFB6B6"/>
<path d="M109.89 224.467L116.347 224.082V226.848L122.485 231.088C122.788 231.297 123.017 231.598 123.137 231.946C123.257 232.294 123.263 232.672 123.153 233.024C123.043 233.376 122.824 233.683 122.527 233.901C122.231 234.12 121.872 234.238 121.503 234.238H113.817L112.492 231.501L111.974 234.238H109.076L109.89 224.467Z" fill="#2F2E41"/>
<path d="M131.253 67.8105L122.792 67.9765L116.819 74.2808L112.031 74.9831C109.865 75.3007 107.874 76.3522 106.39 77.9618C104.906 79.5714 104.02 81.6415 103.879 83.8261L104.708 88.3826H109.686L112.565 105.288C111.445 108.141 111.369 110.393 113.667 111.277L120.801 124.715L141.871 115.259C142.939 113.422 143.282 111.577 142.189 109.783L143.696 83.9032H148.76C148.76 79.0629 147.123 74.9824 142.313 74.4438C140.403 74.2371 138.483 74.1273 136.562 74.1149L131.253 67.8105Z" fill="#E6E6E6"/>
<path d="M141.87 115.259C141.87 115.259 121.298 118.909 113.667 111.277C113.667 111.277 112.892 112.593 111.724 114.774C111.389 115.401 110.74 115.826 110.349 116.586C109.993 117.277 109.077 118.126 108.69 118.909C108.378 119.539 108.878 120.363 108.554 121.043C104.645 129.241 100.079 140.804 101.058 148.44C101.689 153.364 102.993 164.821 104.366 177.127C104.474 178.089 103.605 179.324 103.713 180.293C103.814 181.207 104.893 181.855 104.994 182.771C105.062 183.379 104.309 183.999 104.376 184.607C104.45 185.273 105.344 185.926 105.418 186.59C107.299 203.582 109.021 219.446 109.021 219.446H118.644L120.459 183.214L118.976 170.007L122.46 143.297L127.271 168.68L127.89 182.966L132.974 220.11H141.87V184.152L142.534 182.284L141.87 179.888L142.534 177.307L141.87 174.496V115.259Z" fill="#2F2E41"/>
<path d="M133.85 62.9039C132.539 64.645 130.675 65.8878 128.563 66.4276C126.452 66.9674 124.22 66.7721 122.234 65.8739C120.249 64.9756 118.628 63.4279 117.64 61.4857C116.651 59.5435 116.354 57.3226 116.796 55.1887C117.239 53.0548 118.395 51.1353 120.074 49.7461C121.753 48.3569 123.855 47.581 126.034 47.5462C128.213 47.5113 130.339 48.2195 132.062 49.5542C133.784 50.889 135.001 52.7706 135.511 54.8892C135.539 55.0042 135.562 55.1185 135.585 55.2371C135.855 56.5651 135.839 57.9351 135.54 59.2567C135.241 60.5784 134.665 61.8215 133.85 62.9039Z" fill="#FFB6B6"/>
<path d="M131.85 57.4316C131.646 56.4105 131.132 55.4775 130.377 54.7606C130.451 55.7391 130.315 56.7223 129.978 57.644C127.456 57.8674 124.922 57.3655 122.675 56.1973C120.983 55.0493 118.83 55.1488 116.321 56.1973C116.321 54.9772 116.561 53.7691 117.028 52.6418C117.495 51.5145 118.179 50.4903 119.042 49.6276C119.905 48.7648 120.929 48.0805 122.056 47.6136C123.184 47.1468 124.392 46.9066 125.612 46.9067H127.271C129.735 46.9072 132.098 47.8862 133.84 49.6284C135.582 51.3706 136.561 53.7335 136.562 56.1973C135.03 56.7465 133.454 57.1596 131.85 57.4316Z" fill="#2F2E41"/>
<path d="M59.2687 175.843C74.0095 175.843 85.9593 163.894 85.9593 149.153C85.9593 134.412 74.0095 122.462 59.2687 122.462C44.5279 122.462 32.5781 134.412 32.5781 149.153C32.5781 163.894 44.5279 175.843 59.2687 175.843Z" fill="#F0F0F0"/>
<path d="M229.355 53.3811C244.095 53.3811 256.045 41.4313 256.045 26.6905C256.045 11.9498 244.095 0 229.355 0C214.614 0 202.664 11.9498 202.664 26.6905C202.664 41.4313 214.614 53.3811 229.355 53.3811Z" fill="#F0F0F0"/>
<path d="M441.31 180.03C456.051 180.03 468 168.081 468 153.34C468 138.599 456.051 126.649 441.31 126.649C426.569 126.649 414.619 138.599 414.619 153.34C414.619 168.081 426.569 180.03 441.31 180.03Z" fill="#F0F0F0"/>
<path d="M277.503 29.6013V90.1241C277.503 91.3812 277.007 92.5877 276.123 93.4813C275.238 94.3749 274.037 94.8835 272.78 94.8966C272.763 94.8984 272.745 94.8991 272.728 94.8988H265.684C260.048 94.8988 254.642 92.6598 250.657 88.6744C246.672 84.6891 244.433 79.2838 244.433 73.6476V29.6013C244.433 28.335 244.936 27.1206 245.831 26.2251C246.727 25.3297 247.941 24.8267 249.207 24.8267H252.062C250.739 28.684 268.686 30.3081 269.671 24.8267H272.728C273.994 24.8267 275.209 25.3297 276.104 26.2251C277 27.1206 277.503 28.335 277.503 29.6013Z" fill="#F9A826"/>
<path d="M256.599 20.301C256.599 20.1351 256.665 19.9761 256.782 19.8588C256.899 19.7415 257.058 19.6755 257.224 19.6753H261.479C261.645 19.6758 261.804 19.7419 261.921 19.8592C262.038 19.9765 262.103 20.1354 262.103 20.301C262.103 20.4667 262.038 20.6256 261.921 20.7429C261.804 20.8602 261.645 20.9263 261.479 20.9268H257.224C257.058 20.9266 256.899 20.8606 256.782 20.7433C256.665 20.626 256.599 20.4669 256.599 20.301Z" fill="#3F3D56"/>
<path d="M274.19 102.575H247.282C245.194 102.573 243.193 101.743 241.717 100.267C240.241 98.7904 239.41 96.7889 239.408 94.7012V52.3934C239.26 52.2873 239.14 52.1475 239.057 51.9856C238.974 51.8237 238.931 51.6444 238.931 51.4625V47.2075C238.931 47.0256 238.974 46.8463 239.057 46.6844C239.14 46.5226 239.26 46.3828 239.408 46.2768V45.1348C239.26 45.0287 239.14 44.889 239.057 44.7271C238.974 44.5653 238.931 44.386 238.931 44.2041V39.9489C238.931 39.767 238.974 39.5877 239.057 39.4259C239.14 39.264 239.26 39.1243 239.408 39.0182V36.9542C239.225 36.8562 239.073 36.7105 238.967 36.5326C238.861 36.3547 238.805 36.1514 238.806 35.9443V31.6893C238.805 31.4822 238.861 31.2788 238.967 31.1009C239.073 30.923 239.225 30.7772 239.408 30.6792V25.0236C239.41 22.9359 240.241 20.9345 241.717 19.4583C243.193 17.9821 245.194 17.1518 247.282 17.1494H274.19C276.278 17.1518 278.28 17.9821 279.756 19.4583C281.232 20.9345 282.062 22.936 282.065 25.0236V37.3516C282.206 37.4403 282.323 37.5636 282.404 37.7099C282.486 37.8562 282.528 38.0207 282.528 38.1879V46.3013C282.528 46.4686 282.485 46.6332 282.404 46.7795C282.323 46.9258 282.206 47.0492 282.065 47.1379V94.7012C282.062 96.7889 281.232 98.7903 279.756 100.267C278.28 101.743 276.278 102.573 274.19 102.575ZM247.282 18.1961C245.472 18.1981 243.737 18.9181 242.457 20.1981C241.177 21.478 240.456 23.2134 240.454 25.0236V31.5695L239.951 31.5889C239.925 31.5899 239.9 31.6008 239.882 31.6195C239.863 31.6382 239.853 31.6632 239.852 31.6893V35.9443C239.853 35.9704 239.863 35.9954 239.882 36.0141C239.9 36.0327 239.925 36.0437 239.951 36.0447L240.454 36.0639V39.7531L240.056 39.8512C240.034 39.8565 240.015 39.869 240 39.8867C239.986 39.9043 239.978 39.9262 239.978 39.9489V44.2041C239.978 44.2268 239.986 44.2486 240 44.2663C240.015 44.2839 240.034 44.2964 240.056 44.3017L240.454 44.3998V47.0117L240.056 47.1098C240.034 47.1151 240.015 47.1276 240 47.1453C239.986 47.1629 239.978 47.1848 239.978 47.2075V51.4624C239.978 51.4852 239.986 51.5071 240 51.5248C240.014 51.5425 240.034 51.555 240.056 51.5603L240.454 51.6584V94.7012C240.456 96.5114 241.177 98.2468 242.457 99.5268C243.737 100.807 245.472 101.527 247.282 101.529H274.19C276.001 101.527 277.736 100.807 279.016 99.5267C280.296 98.2468 281.016 96.5114 281.018 94.7012V46.2418H281.481V38.2478H281.018V25.0236C281.016 23.2134 280.296 21.478 279.016 20.1981C277.736 18.9181 276.001 18.1982 274.19 18.1961L247.282 18.1961Z" fill="#3F3D56"/>
<path d="M263.857 20.9271C264.203 20.9271 264.483 20.6469 264.483 20.3012C264.483 19.9555 264.203 19.6753 263.857 19.6753C263.512 19.6753 263.231 19.9555 263.231 20.3012C263.231 20.6469 263.512 20.9271 263.857 20.9271Z" fill="#3F3D56"/>
<path d="M127.738 141.514H57.7211C56.7268 141.511 55.7739 141.115 55.0708 140.412C54.3676 139.709 53.9714 138.757 53.9688 137.762V103.646C53.9713 102.652 54.3674 101.699 55.0704 100.996C55.7735 100.292 56.7263 99.8962 57.7206 99.8936H127.737C128.732 99.8961 129.684 100.292 130.388 100.995C131.091 101.698 131.487 102.651 131.49 103.645V137.762C131.487 138.756 131.091 139.709 130.388 140.412C129.685 141.115 128.732 141.511 127.738 141.514Z" fill="white"/>
<path d="M127.738 141.514H57.7211C56.7268 141.511 55.7739 141.115 55.0708 140.412C54.3676 139.709 53.9714 138.757 53.9688 137.762V103.646C53.9713 102.652 54.3674 101.699 55.0704 100.996C55.7735 100.292 56.7263 99.8962 57.7206 99.8936H127.737C128.732 99.8961 129.684 100.292 130.388 100.995C131.091 101.698 131.487 102.651 131.49 103.645V137.762C131.487 138.756 131.091 139.709 130.388 140.412C129.685 141.115 128.732 141.511 127.738 141.514ZM57.7211 100.94C57.0041 100.942 56.317 101.228 55.8101 101.735C55.3031 102.242 55.0174 102.929 55.0154 103.646V137.762C55.0175 138.479 55.3033 139.166 55.8104 139.673C56.3174 140.18 57.0046 140.465 57.7216 140.467H127.737C128.454 140.465 129.141 140.18 129.648 139.673C130.155 139.165 130.441 138.478 130.443 137.761V103.646C130.441 102.929 130.155 102.242 129.648 101.735C129.141 101.228 128.454 100.942 127.737 100.94L57.7211 100.94Z" fill="#3F3D56"/>
<path d="M96.4821 136.472C82.6733 136.472 68.2745 136.34 62.9021 136.254C62.1953 136.24 61.5222 135.949 61.0265 135.445C60.5308 134.941 60.2517 134.263 60.249 133.556V105.316C60.2493 105.063 60.3498 104.82 60.5286 104.641C60.7074 104.461 60.9499 104.36 61.2031 104.359H124.253C124.506 104.36 124.749 104.46 124.928 104.639C125.108 104.818 125.209 105.06 125.21 105.313V124.474C125.198 127.602 123.961 130.6 121.764 132.826C119.566 135.052 116.584 136.329 113.457 136.381C108.45 136.446 102.521 136.472 96.4821 136.472Z" fill="#F9A826"/>
<path d="M120.511 122.714H63.54C63.063 122.712 62.5979 122.564 62.208 122.289C61.8181 122.015 61.5223 121.626 61.3608 121.178L54.9125 103.087C54.7882 102.738 54.7495 102.365 54.7996 101.998C54.8496 101.631 54.987 101.281 55.2002 100.978C55.4134 100.676 55.6961 100.428 56.0247 100.257C56.3533 100.086 56.718 99.9968 57.0884 99.9961L128.301 99.897C128.64 99.8966 128.974 99.9705 129.281 100.113C129.588 100.256 129.86 100.465 130.077 100.724C130.295 100.984 130.453 101.288 130.54 101.615C130.627 101.942 130.642 102.284 130.582 102.617L130.637 102.64L130.433 103.118L130.431 103.122L122.636 121.311C122.458 121.728 122.162 122.083 121.784 122.332C121.406 122.581 120.964 122.714 120.511 122.714ZM128.304 100.944L57.0904 101.043C56.8876 101.043 56.6877 101.092 56.5077 101.186C56.3277 101.279 56.1728 101.415 56.056 101.581C55.9392 101.747 55.8639 101.938 55.8365 102.139C55.8091 102.34 55.8303 102.545 55.8984 102.736L62.3464 120.825C62.435 121.071 62.5972 121.284 62.8108 121.435C63.0245 121.585 63.2794 121.666 63.5408 121.667H120.511C120.759 121.667 121.001 121.595 121.208 121.458C121.414 121.322 121.576 121.127 121.674 120.899L129.469 102.71L129.852 102.874L129.469 102.71C129.552 102.517 129.585 102.307 129.567 102.098C129.548 101.889 129.478 101.688 129.362 101.513C129.247 101.338 129.09 101.194 128.905 101.095C128.72 100.996 128.514 100.944 128.304 100.944Z" fill="#3F3D56"/>
<path d="M92.6231 126.651C95.0868 126.651 97.0841 124.654 97.0841 122.19C97.0841 119.727 95.0868 117.729 92.6231 117.729C90.1594 117.729 88.1621 119.727 88.1621 122.19C88.1621 124.654 90.1594 126.651 92.6231 126.651Z" fill="white"/>
<path d="M261.14 87.924C263.603 87.924 265.601 85.9267 265.601 83.4629C265.601 80.9992 263.603 79.002 261.14 79.002C258.676 79.002 256.679 80.9992 256.679 83.4629C256.679 85.9267 258.676 87.924 261.14 87.924Z" fill="white"/>
<path d="M429.864 148.169L417.947 136.405C417.367 135.827 416.679 135.37 415.922 135.06C415.164 134.749 414.354 134.591 413.535 134.594H413.493C412.669 134.596 411.853 134.762 411.093 135.082C410.333 135.402 409.644 135.869 409.066 136.457C406.401 139.153 404.886 142.778 404.838 146.569C404.79 150.359 406.214 154.021 408.809 156.784C408.935 156.92 409.066 157.051 409.197 157.181C409.921 157.902 410.722 158.542 411.583 159.092C413.939 160.614 416.686 161.419 419.491 161.41H419.58C421.505 161.403 423.41 161.015 425.184 160.268C426.958 159.52 428.566 158.429 429.916 157.056C431.085 155.869 431.736 154.268 431.727 152.602C431.717 150.936 431.047 149.342 429.864 148.169ZM429.173 156.318C426.96 158.547 424.047 159.945 420.924 160.277C417.801 160.608 414.659 159.853 412.028 158.139C411.275 157.641 410.573 157.071 409.929 156.438C407.362 153.902 405.907 150.45 405.884 146.841C405.861 143.233 407.273 139.763 409.809 137.195C410.291 136.704 410.866 136.313 411.5 136.046C412.135 135.78 412.816 135.642 413.504 135.64H413.535C414.217 135.638 414.892 135.77 415.522 136.029C416.152 136.287 416.726 136.668 417.209 137.148L429.126 148.918C430.112 149.893 430.671 151.221 430.68 152.608C430.689 153.995 430.147 155.33 429.173 156.318Z" fill="#3F3D56"/>
<path d="M390.764 109.557L378.848 97.7869C377.675 96.6231 376.088 95.9719 374.436 95.9761H374.4C373.574 95.9794 372.757 96.1462 371.996 96.4669C371.235 96.7876 370.546 97.2557 369.967 97.8444C367.764 100.082 366.336 102.965 365.891 106.073C365.447 109.181 366.009 112.35 367.497 115.115L367.502 115.12C368.115 116.251 368.878 117.295 369.768 118.223C369.867 118.339 369.982 118.454 370.098 118.569C372.834 121.285 376.536 122.806 380.392 122.797H380.486C382.411 122.789 384.316 122.4 386.09 121.652C387.864 120.904 389.472 119.811 390.822 118.438C391.401 117.851 391.86 117.156 392.17 116.392C392.481 115.628 392.638 114.81 392.633 113.985C392.627 113.161 392.46 112.345 392.139 111.585C391.819 110.825 391.351 110.136 390.764 109.557V109.557ZM390.074 117.705C388.821 118.98 387.328 119.993 385.682 120.688C384.035 121.382 382.268 121.743 380.481 121.751H380.392C377.708 121.75 375.085 120.955 372.852 119.467C370.619 117.979 368.875 115.864 367.841 113.388C366.807 110.912 366.528 108.185 367.039 105.55C367.551 102.916 368.83 100.492 370.715 98.5824C371.691 97.5959 373.018 97.0369 374.405 97.0281C375.793 97.0193 377.127 97.5613 378.115 98.5352L390.032 110.3C391.018 111.277 391.576 112.606 391.584 113.994C391.591 115.382 391.048 116.717 390.074 117.705L390.074 117.705Z" fill="#3F3D56"/>
<path d="M430.625 151.868L417.487 138.892C416.626 138.043 415.463 137.571 414.253 137.578C413.044 137.586 411.887 138.073 411.036 138.932C409.972 140.008 409.13 141.282 408.558 142.683C407.986 144.084 407.697 145.584 407.705 147.097C407.714 148.61 408.02 150.107 408.608 151.501C409.195 152.895 410.052 154.16 411.128 155.224C412.205 156.287 413.48 157.128 414.882 157.698C416.283 158.267 417.783 158.556 419.297 158.545C420.81 158.535 422.306 158.227 423.699 157.638C425.093 157.049 426.357 156.191 427.419 155.114L430.625 151.868Z" fill="#F9A826"/>
<path d="M391.529 113.254L378.392 100.278C377.53 99.429 376.367 98.9564 375.158 98.964C373.948 98.9715 372.791 99.4584 371.94 100.318C370.876 101.393 370.034 102.668 369.462 104.069C368.891 105.47 368.601 106.97 368.61 108.483C368.618 109.996 368.925 111.492 369.512 112.887C370.099 114.281 370.956 115.546 372.032 116.609C373.109 117.673 374.384 118.513 375.786 119.083C377.188 119.653 378.688 119.941 380.201 119.931C381.714 119.921 383.21 119.612 384.604 119.024C385.998 118.435 387.262 117.577 388.324 116.499L391.529 113.254Z" fill="#F9A826"/>
<path d="M416.189 159.95L415.875 160.777C414.4 160.217 412.969 159.655 411.584 159.092C387.05 149.08 375.337 137.362 367.503 115.12L367.497 115.115C367.126 114.068 366.765 112.997 366.414 111.902L367.241 111.635C367.517 112.688 367.922 113.704 368.445 114.66C368.874 115.879 369.315 117.067 369.769 118.224C377.132 136.996 387.992 147.725 408.81 156.784C409.857 157.239 410.93 157.691 412.029 158.139C413.305 158.971 414.711 159.583 416.189 159.95Z" fill="#3F3D56"/>
<path d="M378.629 121.845L377.894 122.59L405.075 149.436L405.811 148.691L378.629 121.845Z" fill="#3F3D56"/>
<path d="M148.506 99.5999L148.52 82.4014L138.411 83.3048L141.978 94.1518L129.027 113.785C128.217 113.966 127.478 114.38 126.899 114.975C126.32 115.569 125.926 116.32 125.767 117.134C125.607 117.949 125.687 118.792 125.998 119.562C126.31 120.331 126.838 120.993 127.519 121.468C128.2 121.942 129.005 122.208 129.834 122.233C130.664 122.258 131.483 122.042 132.191 121.609C132.9 121.177 133.467 120.548 133.825 119.799C134.182 119.049 134.313 118.212 134.203 117.39L148.506 99.5999Z" fill="#FFB6B6"/>
</g>
<defs>
<clipPath id="clip0_225_326">
<rect width="468" height="234.606" fill="white"/>
</clipPath>
</defs>
</svg>
