<svg width="52" height="52" viewBox="0 0 52 52" fill="none" xmlns="http://www.w3.org/2000/svg">
<ellipse cx="26" cy="25.7739" rx="26" ry="25.7739" fill="#A2C4ED"/>
<path d="M26.0169 44.462C20.4436 44.462 15.9256 42.8923 15.9256 40.956C15.9256 39.0197 20.4436 37.4498 26.0169 37.4498C31.5902 37.4498 36.108 39.0197 36.108 40.956C36.108 42.8923 31.5901 44.462 26.0169 44.462Z" fill="#EAF4F7"/>
<path d="M40.8494 21.425C40.8494 13.0055 33.8126 6.22563 25.2859 6.61922C17.6512 6.97173 11.1426 13.2881 11.1426 20.9126C11.1426 31.942 25.992 40.4464 25.992 40.4464C25.992 40.4464 40.8494 31.942 40.8494 21.425Z" fill="#EE4637"/>
<path d="M31.4155 36.1767C30.2445 37.0638 28.8008 37.5433 27.3157 37.5384C25.8306 37.5334 24.3904 37.0443 23.2258 36.1493C18.831 32.7698 12.4747 26.6339 12.4747 19.4181C12.4857 16.3543 13.5292 13.3783 15.4458 10.9447C12.81 13.5297 11.1426 17.0525 11.1426 20.9107C11.1426 31.9401 25.992 40.4445 25.992 40.4445C25.992 40.4445 32.0479 36.9777 36.4272 31.7337C34.8814 33.3423 33.2055 34.828 31.4155 36.1767Z" fill="#CD3C27"/>
<path d="M25.2937 6.61922C22.6168 6.75308 20.0285 7.59547 17.809 9.05519C19.5569 8.23669 21.456 7.76677 23.3939 7.67355C31.9206 7.28025 38.9575 14.0597 38.9575 22.4793C38.9575 30.7255 29.8238 37.7341 25.8793 40.3763C25.9565 40.4221 25.9993 40.4468 25.9993 40.4468C25.9993 40.4468 40.8569 31.942 40.8569 21.425C40.8572 13.0055 33.8204 6.22563 25.2937 6.61922Z" fill="#F07378"/>
<path d="M26.0094 27.094C24.8003 27.094 23.6183 26.7458 22.6131 26.0935C21.6077 25.4411 20.8242 24.5139 20.3615 23.4291C19.8988 22.3444 19.7776 21.1506 20.0135 19.999C20.2493 18.8474 20.8316 17.7895 21.6866 16.9592C22.5415 16.1289 23.6308 15.5636 24.8165 15.3345C26.0023 15.1053 27.2315 15.2229 28.3485 15.6723C29.4657 16.1216 30.4204 16.8826 31.0921 17.8589C31.7639 18.8351 32.1224 19.983 32.1224 21.1572C32.1224 22.7317 31.4783 24.2417 30.3319 25.355C29.1855 26.4683 27.6307 27.094 26.0094 27.094Z" fill="white"/>
<path d="M26.0094 27.094C24.8003 27.094 23.6183 26.7458 22.6131 26.0935C21.6077 25.4411 20.8242 24.5139 20.3615 23.4291C19.8988 22.3444 19.7776 21.1506 20.0135 19.999C20.2493 18.8474 20.8316 17.7895 21.6866 16.9592C22.5415 16.1289 23.6308 15.5636 24.8165 15.3345C26.0023 15.1053 27.2315 15.2229 28.3485 15.6723C29.4657 16.1216 30.4204 16.8826 31.0921 17.8589C31.7639 18.8351 32.1224 19.983 32.1224 21.1572C32.1224 22.7317 31.4783 24.2417 30.3319 25.355C29.1855 26.4683 27.6307 27.094 26.0094 27.094Z" stroke="#363A5A" stroke-width="6" stroke-miterlimit="10"/>
<path d="M40.8494 21.425C40.8494 13.0055 33.8126 6.22563 25.2859 6.61922C17.6512 6.97173 11.1426 13.2881 11.1426 20.9126C11.1426 31.942 25.992 40.4464 25.992 40.4464C25.992 40.4464 40.8494 31.942 40.8494 21.425Z" stroke="#363A5A" stroke-width="6" stroke-linecap="round" stroke-linejoin="round"/>
</svg>
